<svg width="20" height="20" viewBox="0 0 20 20" fill="none" xmlns="http://www.w3.org/2000/svg">
<path d="M15.2082 2.92392C15.5533 2.92402 15.8333 2.64428 15.8333 2.2991C15.8333 1.95392 15.5537 1.67402 15.2085 1.67392L4.37518 1.67078C4.03 1.67068 3.75 1.95043 3.75 2.2956C3.75 2.64078 4.02964 2.92068 4.37482 2.92078L15.2082 2.92392ZM9.70686 18.3308L9.79167 18.3365C10.1081 18.3365 10.3696 18.1013 10.411 17.7963L10.4167 17.7115L10.4158 6.3073L13.5173 9.40757C13.7393 9.62944 14.0865 9.64958 14.3311 9.46801L14.4012 9.40748C14.6231 9.18557 14.6432 8.83835 14.4617 8.59369L14.4011 8.5236L10.2364 4.35975C10.0146 4.13801 9.66766 4.11776 9.423 4.29906L9.3529 4.3595L5.18336 8.52334C4.93912 8.76725 4.93885 9.16298 5.18276 9.40723C5.40449 9.62927 5.7517 9.64968 5.9965 9.4683L6.06664 9.40783L9.16583 6.31313L9.16667 17.7115C9.16667 18.0279 9.40179 18.2894 9.70686 18.3308Z" fill="#545454"/>
</svg>
