<svg width="20" height="20" viewBox="0 0 20 20" fill="none" xmlns="http://www.w3.org/2000/svg">
<path d="M14.3757 3.33334L14.2909 3.33904C13.9858 3.38043 13.7507 3.64192 13.7507 3.95834L13.75 14.535L11.0668 11.8537L10.9966 11.7932C10.7519 11.6117 10.4047 11.6321 10.1829 11.854C9.9389 12.0982 9.93906 12.4939 10.1832 12.7379L13.9364 16.4879L14.0065 16.5484C14.2513 16.7298 14.5985 16.7095 14.8203 16.4875L18.5671 12.7375L18.6276 12.6674C18.8091 12.4227 18.7887 12.0755 18.5668 11.8537L18.4966 11.7932C18.2519 11.6117 17.9047 11.6321 17.6829 11.854L15 14.5383L15.0007 3.95834L14.995 3.87353C14.9536 3.56846 14.6921 3.33334 14.3757 3.33334ZM5.17868 3.51641L1.43304 7.26229L1.37253 7.33239C1.19099 7.57707 1.21118 7.92429 1.43307 8.14617L1.50317 8.20668C1.74786 8.38822 2.09507 8.36804 2.31696 8.14614L4.9975 5.46426L4.99805 16.0458L5.00376 16.1306C5.04514 16.4357 5.30664 16.6708 5.62305 16.6708L5.70786 16.6651C6.01292 16.6237 6.24805 16.3622 6.24805 16.0458L6.2475 5.46593L8.93322 8.14664L9.00338 8.20708C9.24826 8.38835 9.59545 8.36781 9.8171 8.14567C10.0609 7.90133 10.0605 7.5056 9.81614 7.26179L6.06209 3.51591L5.99198 3.45551C5.7473 3.27434 5.40039 3.29468 5.17868 3.51641Z" fill="#121212"/>
</svg>
