<svg width="16" height="16" viewBox="0 0 16 16" fill="none" xmlns="http://www.w3.org/2000/svg">
<path d="M6.83333 2.33333H9.16667C9.44281 2.33333 9.66667 2.55719 9.66667 2.83333V3.99999H6.33333V2.83333C6.33333 2.55719 6.55719 2.33333 6.83333 2.33333ZM5.33333 2.83333V3.99999H4.16667C2.97005 3.99999 2 4.97004 2 6.16666V7.16666C2 7.81099 2.52233 8.33333 3.16667 8.33333H6.66667V8C6.66667 7.63181 6.96514 7.33333 7.33333 7.33333H8.66667C9.03486 7.33333 9.33333 7.6318 9.33333 8V8.33333H12.8333C13.4777 8.33333 14 7.81099 14 7.16666V6.16666C14 4.97004 13.03 3.99999 11.8333 3.99999H10.6667V2.83333C10.6667 2.0049 9.99509 1.33333 9.16667 1.33333H6.83333C6.00491 1.33333 5.33333 2.0049 5.33333 2.83333ZM14 8.99272C13.6632 9.20833 13.2629 9.33333 12.8333 9.33333H9.33333C9.33333 9.70152 9.03486 10 8.66667 10H7.33333C6.96514 10 6.66667 9.70152 6.66667 9.33333H3.16667C2.73712 9.33333 2.33677 9.20833 2 8.99272V11.1667C2 12.3633 2.97005 13.3333 4.16667 13.3333H11.8333C13.03 13.3333 14 12.3633 14 11.1667V8.99272Z" fill="#AFAFAF"/>
<path d="M6.83333 2.33333H9.16667C9.44281 2.33333 9.66667 2.55719 9.66667 2.83333V3.99999H6.33333V2.83333C6.33333 2.55719 6.55719 2.33333 6.83333 2.33333ZM5.33333 2.83333V3.99999H4.16667C2.97005 3.99999 2 4.97004 2 6.16666V7.16666C2 7.81099 2.52233 8.33333 3.16667 8.33333H6.66667V8C6.66667 7.63181 6.96514 7.33333 7.33333 7.33333H8.66667C9.03486 7.33333 9.33333 7.6318 9.33333 8V8.33333H12.8333C13.4777 8.33333 14 7.81099 14 7.16666V6.16666C14 4.97004 13.03 3.99999 11.8333 3.99999H10.6667V2.83333C10.6667 2.0049 9.99509 1.33333 9.16667 1.33333H6.83333C6.00491 1.33333 5.33333 2.0049 5.33333 2.83333ZM14 8.99272C13.6632 9.20833 13.2629 9.33333 12.8333 9.33333H9.33333C9.33333 9.70152 9.03486 10 8.66667 10H7.33333C6.96514 10 6.66667 9.70152 6.66667 9.33333H3.16667C2.73712 9.33333 2.33677 9.20833 2 8.99272V11.1667C2 12.3633 2.97005 13.3333 4.16667 13.3333H11.8333C13.03 13.3333 14 12.3633 14 11.1667V8.99272Z" fill="black" fill-opacity="0.7" style="mix-blend-mode:hue"/>
<path d="M6.83333 2.33333H9.16667C9.44281 2.33333 9.66667 2.55719 9.66667 2.83333V3.99999H6.33333V2.83333C6.33333 2.55719 6.55719 2.33333 6.83333 2.33333ZM5.33333 2.83333V3.99999H4.16667C2.97005 3.99999 2 4.97004 2 6.16666V7.16666C2 7.81099 2.52233 8.33333 3.16667 8.33333H6.66667V8C6.66667 7.63181 6.96514 7.33333 7.33333 7.33333H8.66667C9.03486 7.33333 9.33333 7.6318 9.33333 8V8.33333H12.8333C13.4777 8.33333 14 7.81099 14 7.16666V6.16666C14 4.97004 13.03 3.99999 11.8333 3.99999H10.6667V2.83333C10.6667 2.0049 9.99509 1.33333 9.16667 1.33333H6.83333C6.00491 1.33333 5.33333 2.0049 5.33333 2.83333ZM14 8.99272C13.6632 9.20833 13.2629 9.33333 12.8333 9.33333H9.33333C9.33333 9.70152 9.03486 10 8.66667 10H7.33333C6.96514 10 6.66667 9.70152 6.66667 9.33333H3.16667C2.73712 9.33333 2.33677 9.20833 2 8.99272V11.1667C2 12.3633 2.97005 13.3333 4.16667 13.3333H11.8333C13.03 13.3333 14 12.3633 14 11.1667V8.99272Z" fill="white" fill-opacity="0.16"/>
</svg>
