<svg width="16" height="16" viewBox="0 0 16 16" fill="none" xmlns="http://www.w3.org/2000/svg">
<path d="M14 5.66667V11.8333C14 13.03 13.03 14 11.8333 14H4.16667C2.97005 14 2 13.03 2 11.8333V5.66667H14ZM4.83333 10C4.3731 10 4 10.3731 4 10.8333C4 11.2936 4.3731 11.6667 4.83333 11.6667C5.29357 11.6667 5.66667 11.2936 5.66667 10.8333C5.66667 10.3731 5.29357 10 4.83333 10ZM8 10C7.53976 10 7.16667 10.3731 7.16667 10.8333C7.16667 11.2936 7.53976 11.6667 8 11.6667C8.46024 11.6667 8.83333 11.2936 8.83333 10.8333C8.83333 10.3731 8.46024 10 8 10ZM4.83333 7C4.3731 7 4 7.3731 4 7.83333C4 8.29357 4.3731 8.66667 4.83333 8.66667C5.29357 8.66667 5.66667 8.29357 5.66667 7.83333C5.66667 7.3731 5.29357 7 4.83333 7ZM8 7C7.53976 7 7.16667 7.3731 7.16667 7.83333C7.16667 8.29357 7.53976 8.66667 8 8.66667C8.46024 8.66667 8.83333 8.29357 8.83333 7.83333C8.83333 7.3731 8.46024 7 8 7ZM11.1667 7C10.7064 7 10.3333 7.3731 10.3333 7.83333C10.3333 8.29357 10.7064 8.66667 11.1667 8.66667C11.6269 8.66667 12 8.29357 12 7.83333C12 7.3731 11.6269 7 11.1667 7ZM11.8333 2C13.03 2 14 2.97005 14 4.16667V4.66667H2V4.16667C2 2.97005 2.97005 2 4.16667 2H11.8333Z" fill="#AFAFAF"/>
<path d="M14 5.66667V11.8333C14 13.03 13.03 14 11.8333 14H4.16667C2.97005 14 2 13.03 2 11.8333V5.66667H14ZM4.83333 10C4.3731 10 4 10.3731 4 10.8333C4 11.2936 4.3731 11.6667 4.83333 11.6667C5.29357 11.6667 5.66667 11.2936 5.66667 10.8333C5.66667 10.3731 5.29357 10 4.83333 10ZM8 10C7.53976 10 7.16667 10.3731 7.16667 10.8333C7.16667 11.2936 7.53976 11.6667 8 11.6667C8.46024 11.6667 8.83333 11.2936 8.83333 10.8333C8.83333 10.3731 8.46024 10 8 10ZM4.83333 7C4.3731 7 4 7.3731 4 7.83333C4 8.29357 4.3731 8.66667 4.83333 8.66667C5.29357 8.66667 5.66667 8.29357 5.66667 7.83333C5.66667 7.3731 5.29357 7 4.83333 7ZM8 7C7.53976 7 7.16667 7.3731 7.16667 7.83333C7.16667 8.29357 7.53976 8.66667 8 8.66667C8.46024 8.66667 8.83333 8.29357 8.83333 7.83333C8.83333 7.3731 8.46024 7 8 7ZM11.1667 7C10.7064 7 10.3333 7.3731 10.3333 7.83333C10.3333 8.29357 10.7064 8.66667 11.1667 8.66667C11.6269 8.66667 12 8.29357 12 7.83333C12 7.3731 11.6269 7 11.1667 7ZM11.8333 2C13.03 2 14 2.97005 14 4.16667V4.66667H2V4.16667C2 2.97005 2.97005 2 4.16667 2H11.8333Z" fill="black" fill-opacity="0.7" style="mix-blend-mode:hue"/>
<path d="M14 5.66667V11.8333C14 13.03 13.03 14 11.8333 14H4.16667C2.97005 14 2 13.03 2 11.8333V5.66667H14ZM4.83333 10C4.3731 10 4 10.3731 4 10.8333C4 11.2936 4.3731 11.6667 4.83333 11.6667C5.29357 11.6667 5.66667 11.2936 5.66667 10.8333C5.66667 10.3731 5.29357 10 4.83333 10ZM8 10C7.53976 10 7.16667 10.3731 7.16667 10.8333C7.16667 11.2936 7.53976 11.6667 8 11.6667C8.46024 11.6667 8.83333 11.2936 8.83333 10.8333C8.83333 10.3731 8.46024 10 8 10ZM4.83333 7C4.3731 7 4 7.3731 4 7.83333C4 8.29357 4.3731 8.66667 4.83333 8.66667C5.29357 8.66667 5.66667 8.29357 5.66667 7.83333C5.66667 7.3731 5.29357 7 4.83333 7ZM8 7C7.53976 7 7.16667 7.3731 7.16667 7.83333C7.16667 8.29357 7.53976 8.66667 8 8.66667C8.46024 8.66667 8.83333 8.29357 8.83333 7.83333C8.83333 7.3731 8.46024 7 8 7ZM11.1667 7C10.7064 7 10.3333 7.3731 10.3333 7.83333C10.3333 8.29357 10.7064 8.66667 11.1667 8.66667C11.6269 8.66667 12 8.29357 12 7.83333C12 7.3731 11.6269 7 11.1667 7ZM11.8333 2C13.03 2 14 2.97005 14 4.16667V4.66667H2V4.16667C2 2.97005 2.97005 2 4.16667 2H11.8333Z" fill="white" fill-opacity="0.16"/>
</svg>
