<svg width="16" height="16" viewBox="0 0 16 16" fill="none" xmlns="http://www.w3.org/2000/svg">
<path d="M6.91665 3.31766C7.07259 3.16117 7.32585 3.16072 7.48234 3.31665L11.8699 7.68864C12.0425 7.86059 12.0425 8.14004 11.8699 8.312L7.48234 12.684C7.32585 12.8399 7.07259 12.8395 6.91665 12.683C6.76072 12.5265 6.76117 12.2732 6.91766 12.1173L11.0493 8.00032L6.91766 3.88334C6.76117 3.72741 6.76072 3.47415 6.91665 3.31766ZM3.71665 3.31766C3.87259 3.16117 4.12585 3.16072 4.28234 3.31665L8.66993 7.68864C8.8425 7.86059 8.8425 8.14004 8.66993 8.312L4.28234 12.684C4.12585 12.8399 3.87259 12.8395 3.71665 12.683C3.56072 12.5265 3.56117 12.2732 3.71766 12.1173L7.84933 8.00032L3.71766 3.88334C3.56117 3.72741 3.56072 3.47415 3.71665 3.31766Z" fill="#121212"/>
<path fill-rule="evenodd" clip-rule="evenodd" d="M4.21175 3.38749C4.09439 3.27054 3.90444 3.27088 3.78749 3.38824C3.67054 3.50561 3.67088 3.69556 3.78825 3.81251L7.91991 7.92948C7.93874 7.94825 7.94933 7.97373 7.94933 8.00032C7.94933 8.0269 7.93874 8.05239 7.91991 8.07115L3.78825 12.1881C3.67088 12.3051 3.67054 12.495 3.78749 12.6124C3.90444 12.7298 4.09439 12.7301 4.21175 12.6131L8.59934 8.24116C8.73269 8.10829 8.73269 7.89235 8.59934 7.75947L4.21175 3.38749ZM3.64582 3.24708C3.84073 3.05147 4.15731 3.0509 4.35292 3.24582L8.74051 7.6178C8.9523 7.82884 8.9523 8.1718 8.74051 8.38283L4.35292 12.7548C4.15731 12.9497 3.84073 12.9492 3.64582 12.7536C3.4509 12.558 3.45147 12.2414 3.64708 12.0465L7.70765 8.00032L3.64708 3.95418C3.45147 3.75927 3.4509 3.44269 3.64582 3.24708ZM7.41175 3.38749C7.29439 3.27054 7.10444 3.27088 6.98749 3.38824C6.87054 3.50561 6.87088 3.69556 6.98825 3.81251L11.1199 7.92948C11.1387 7.94825 11.1493 7.97373 11.1493 8.00032C11.1493 8.0269 11.1387 8.05239 11.1199 8.07115L6.98825 12.1881C6.87088 12.3051 6.87054 12.495 6.98749 12.6124C7.10444 12.7298 7.29439 12.7301 7.41175 12.6131L11.7993 8.24116C11.9327 8.10829 11.9327 7.89235 11.7993 7.75947L7.41175 3.38749ZM6.84582 3.24708C7.04073 3.05147 7.35731 3.0509 7.55292 3.24582L11.9405 7.6178C12.1523 7.82884 12.1523 8.1718 11.9405 8.38283L7.55292 12.7548C7.35731 12.9497 7.04073 12.9492 6.84582 12.7536C6.6509 12.558 6.65147 12.2414 6.84708 12.0465L10.9077 8.00032L6.84708 3.95418C6.65147 3.75927 6.6509 3.44269 6.84582 3.24708Z" fill="#121212"/>
</svg>
