<svg width="16" height="16" viewBox="0 0 16 16" fill="none" xmlns="http://www.w3.org/2000/svg">
<path d="M8.00001 1.33333C11.6819 1.33333 14.6667 4.3181 14.6667 8C14.6667 11.6819 11.6819 14.6667 8.00001 14.6667C4.31811 14.6667 1.33334 11.6819 1.33334 8C1.33334 4.3181 4.31811 1.33333 8.00001 1.33333ZM4.97979 6.64644C4.78453 6.8417 4.78453 7.15829 4.97979 7.35355L7.64646 10.0202C7.84172 10.2155 8.1583 10.2155 8.35356 10.0202L11.0202 7.35355C11.2155 7.15829 11.2155 6.8417 11.0202 6.64644C10.825 6.45118 10.5084 6.45118 10.3131 6.64644L8.00001 8.95955L5.6869 6.64644C5.49163 6.45118 5.17505 6.45118 4.97979 6.64644Z" fill="#AFAFAF"/>
<path d="M8.00001 1.33333C11.6819 1.33333 14.6667 4.3181 14.6667 8C14.6667 11.6819 11.6819 14.6667 8.00001 14.6667C4.31811 14.6667 1.33334 11.6819 1.33334 8C1.33334 4.3181 4.31811 1.33333 8.00001 1.33333ZM4.97979 6.64644C4.78453 6.8417 4.78453 7.15829 4.97979 7.35355L7.64646 10.0202C7.84172 10.2155 8.1583 10.2155 8.35356 10.0202L11.0202 7.35355C11.2155 7.15829 11.2155 6.8417 11.0202 6.64644C10.825 6.45118 10.5084 6.45118 10.3131 6.64644L8.00001 8.95955L5.6869 6.64644C5.49163 6.45118 5.17505 6.45118 4.97979 6.64644Z" fill="black" fill-opacity="0.7" style="mix-blend-mode:hue"/>
<path d="M8.00001 1.33333C11.6819 1.33333 14.6667 4.3181 14.6667 8C14.6667 11.6819 11.6819 14.6667 8.00001 14.6667C4.31811 14.6667 1.33334 11.6819 1.33334 8C1.33334 4.3181 4.31811 1.33333 8.00001 1.33333ZM4.97979 6.64644C4.78453 6.8417 4.78453 7.15829 4.97979 7.35355L7.64646 10.0202C7.84172 10.2155 8.1583 10.2155 8.35356 10.0202L11.0202 7.35355C11.2155 7.15829 11.2155 6.8417 11.0202 6.64644C10.825 6.45118 10.5084 6.45118 10.3131 6.64644L8.00001 8.95955L5.6869 6.64644C5.49163 6.45118 5.17505 6.45118 4.97979 6.64644Z" fill="white" fill-opacity="0.16"/>
</svg>
