<svg width="16" height="16" viewBox="0 0 16 16" fill="none" xmlns="http://www.w3.org/2000/svg">
<path d="M5.00002 5.00017V1.16667C5.00002 0.890529 5.22388 0.666672 5.50002 0.666672C5.77616 0.666672 6.00002 0.890529 6.00002 1.16667V5.00017C6.00002 5.18426 6.14926 5.3335 6.33335 5.3335C6.51745 5.3335 6.66669 5.18426 6.66669 5.00017V1.66667C6.66669 1.39053 6.89054 1.16667 7.16669 1.16667C7.44283 1.16667 7.66669 1.39053 7.66669 1.66667V5.50001C7.66669 5.51415 7.6661 5.52815 7.66495 5.542C7.95311 5.43312 8.31394 5.3308 8.66669 5.3308C8.99991 5.3308 9.28491 5.41403 9.49617 5.52043C9.60046 5.57296 9.69747 5.63652 9.77672 5.7086C9.81567 5.74403 9.86063 5.79083 9.89973 5.84899C9.93045 5.8947 10 6.00874 10 6.16667C10 6.33907 9.91121 6.4993 9.76502 6.59067L8.49412 7.38498L7.3889 8.64564L6.47071 9.91038C6.1258 10.3855 5.57422 10.6666 4.98713 10.6666H4.22811C3.60746 10.6666 3.01235 10.3514 2.69151 9.79257C2.49008 9.44174 2.24072 8.98076 2.04023 8.52452C1.84951 8.09048 1.66669 7.58261 1.66669 7.16664V2.50001C1.66669 2.22386 1.89054 2.00001 2.16669 2.00001C2.44283 2.00001 2.66669 2.22386 2.66669 2.50001V5.33196C2.66669 5.51605 2.81593 5.66529 3.00002 5.66529C3.18412 5.66529 3.33335 5.51605 3.33335 5.33196V1.66667C3.33335 1.39053 3.55721 1.16667 3.83335 1.16667C4.1095 1.16667 4.33335 1.39053 4.33335 1.66667V5.00017C4.33335 5.18426 4.48259 5.3335 4.66669 5.3335C4.85078 5.3335 5.00002 5.18426 5.00002 5.00017ZM9.99996 14.6667C7.86575 14.6667 6.06615 13.234 5.51044 11.278C6.10765 11.1501 6.6442 10.8061 7.01014 10.3021L7.91033 9.06211L8.93064 7.8983L10.1183 7.15602C10.4594 6.94282 10.6666 6.56894 10.6666 6.16669C10.6666 5.81248 10.5114 5.56406 10.453 5.47709C10.4203 5.42851 10.3864 5.38501 10.3532 5.34652C12.7655 5.52706 14.6666 7.54152 14.6666 10C14.6666 12.5773 12.5773 14.6667 9.99996 14.6667ZM12 9.33335C12 8.96516 11.7015 8.66669 11.3333 8.66669C10.9651 8.66669 10.6666 8.96516 10.6666 9.33335C10.6666 9.70154 10.9651 10 11.3333 10C11.7015 10 12 9.70154 12 9.33335ZM8.0915 11.1415C7.89248 11.3329 7.88633 11.6494 8.07776 11.8484C8.56232 12.3522 9.24478 12.6667 9.99983 12.6667C10.7549 12.6667 11.4374 12.3522 11.9219 11.8484C12.1133 11.6494 12.1072 11.3329 11.9082 11.1415C11.7092 10.95 11.3926 10.9562 11.2012 11.1552C10.8974 11.4711 10.4719 11.6667 9.99983 11.6667C9.52781 11.6667 9.10231 11.4711 8.79847 11.1552C8.60704 10.9562 8.29051 10.95 8.0915 11.1415ZM9.3333 9.33335C9.3333 8.96516 9.03482 8.66669 8.66663 8.66669C8.29844 8.66669 7.99996 8.96516 7.99996 9.33335C7.99996 9.70154 8.29844 10 8.66663 10C9.03482 10 9.3333 9.70154 9.3333 9.33335Z" fill="#83A588"/>
<path d="M5.00002 5.00017V1.16667C5.00002 0.890529 5.22388 0.666672 5.50002 0.666672C5.77616 0.666672 6.00002 0.890529 6.00002 1.16667V5.00017C6.00002 5.18426 6.14926 5.3335 6.33335 5.3335C6.51745 5.3335 6.66669 5.18426 6.66669 5.00017V1.66667C6.66669 1.39053 6.89054 1.16667 7.16669 1.16667C7.44283 1.16667 7.66669 1.39053 7.66669 1.66667V5.50001C7.66669 5.51415 7.6661 5.52815 7.66495 5.542C7.95311 5.43312 8.31394 5.3308 8.66669 5.3308C8.99991 5.3308 9.28491 5.41403 9.49617 5.52043C9.60046 5.57296 9.69747 5.63652 9.77672 5.7086C9.81567 5.74403 9.86063 5.79083 9.89973 5.84899C9.93045 5.8947 10 6.00874 10 6.16667C10 6.33907 9.91121 6.4993 9.76502 6.59067L8.49412 7.38498L7.3889 8.64564L6.47071 9.91038C6.1258 10.3855 5.57422 10.6666 4.98713 10.6666H4.22811C3.60746 10.6666 3.01235 10.3514 2.69151 9.79257C2.49008 9.44174 2.24072 8.98076 2.04023 8.52452C1.84951 8.09048 1.66669 7.58261 1.66669 7.16664V2.50001C1.66669 2.22386 1.89054 2.00001 2.16669 2.00001C2.44283 2.00001 2.66669 2.22386 2.66669 2.50001V5.33196C2.66669 5.51605 2.81593 5.66529 3.00002 5.66529C3.18412 5.66529 3.33335 5.51605 3.33335 5.33196V1.66667C3.33335 1.39053 3.55721 1.16667 3.83335 1.16667C4.1095 1.16667 4.33335 1.39053 4.33335 1.66667V5.00017C4.33335 5.18426 4.48259 5.3335 4.66669 5.3335C4.85078 5.3335 5.00002 5.18426 5.00002 5.00017ZM9.99996 14.6667C7.86575 14.6667 6.06615 13.234 5.51044 11.278C6.10765 11.1501 6.6442 10.8061 7.01014 10.3021L7.91033 9.06211L8.93064 7.8983L10.1183 7.15602C10.4594 6.94282 10.6666 6.56894 10.6666 6.16669C10.6666 5.81248 10.5114 5.56406 10.453 5.47709C10.4203 5.42851 10.3864 5.38501 10.3532 5.34652C12.7655 5.52706 14.6666 7.54152 14.6666 10C14.6666 12.5773 12.5773 14.6667 9.99996 14.6667ZM12 9.33335C12 8.96516 11.7015 8.66669 11.3333 8.66669C10.9651 8.66669 10.6666 8.96516 10.6666 9.33335C10.6666 9.70154 10.9651 10 11.3333 10C11.7015 10 12 9.70154 12 9.33335ZM8.0915 11.1415C7.89248 11.3329 7.88633 11.6494 8.07776 11.8484C8.56232 12.3522 9.24478 12.6667 9.99983 12.6667C10.7549 12.6667 11.4374 12.3522 11.9219 11.8484C12.1133 11.6494 12.1072 11.3329 11.9082 11.1415C11.7092 10.95 11.3926 10.9562 11.2012 11.1552C10.8974 11.4711 10.4719 11.6667 9.99983 11.6667C9.52781 11.6667 9.10231 11.4711 8.79847 11.1552C8.60704 10.9562 8.29051 10.95 8.0915 11.1415ZM9.3333 9.33335C9.3333 8.96516 9.03482 8.66669 8.66663 8.66669C8.29844 8.66669 7.99996 8.96516 7.99996 9.33335C7.99996 9.70154 8.29844 10 8.66663 10C9.03482 10 9.3333 9.70154 9.3333 9.33335Z" fill="black" fill-opacity="0.7" style="mix-blend-mode:hue"/>
<path d="M5.00002 5.00017V1.16667C5.00002 0.890529 5.22388 0.666672 5.50002 0.666672C5.77616 0.666672 6.00002 0.890529 6.00002 1.16667V5.00017C6.00002 5.18426 6.14926 5.3335 6.33335 5.3335C6.51745 5.3335 6.66669 5.18426 6.66669 5.00017V1.66667C6.66669 1.39053 6.89054 1.16667 7.16669 1.16667C7.44283 1.16667 7.66669 1.39053 7.66669 1.66667V5.50001C7.66669 5.51415 7.6661 5.52815 7.66495 5.542C7.95311 5.43312 8.31394 5.3308 8.66669 5.3308C8.99991 5.3308 9.28491 5.41403 9.49617 5.52043C9.60046 5.57296 9.69747 5.63652 9.77672 5.7086C9.81567 5.74403 9.86063 5.79083 9.89973 5.84899C9.93045 5.8947 10 6.00874 10 6.16667C10 6.33907 9.91121 6.4993 9.76502 6.59067L8.49412 7.38498L7.3889 8.64564L6.47071 9.91038C6.1258 10.3855 5.57422 10.6666 4.98713 10.6666H4.22811C3.60746 10.6666 3.01235 10.3514 2.69151 9.79257C2.49008 9.44174 2.24072 8.98076 2.04023 8.52452C1.84951 8.09048 1.66669 7.58261 1.66669 7.16664V2.50001C1.66669 2.22386 1.89054 2.00001 2.16669 2.00001C2.44283 2.00001 2.66669 2.22386 2.66669 2.50001V5.33196C2.66669 5.51605 2.81593 5.66529 3.00002 5.66529C3.18412 5.66529 3.33335 5.51605 3.33335 5.33196V1.66667C3.33335 1.39053 3.55721 1.16667 3.83335 1.16667C4.1095 1.16667 4.33335 1.39053 4.33335 1.66667V5.00017C4.33335 5.18426 4.48259 5.3335 4.66669 5.3335C4.85078 5.3335 5.00002 5.18426 5.00002 5.00017ZM9.99996 14.6667C7.86575 14.6667 6.06615 13.234 5.51044 11.278C6.10765 11.1501 6.6442 10.8061 7.01014 10.3021L7.91033 9.06211L8.93064 7.8983L10.1183 7.15602C10.4594 6.94282 10.6666 6.56894 10.6666 6.16669C10.6666 5.81248 10.5114 5.56406 10.453 5.47709C10.4203 5.42851 10.3864 5.38501 10.3532 5.34652C12.7655 5.52706 14.6666 7.54152 14.6666 10C14.6666 12.5773 12.5773 14.6667 9.99996 14.6667ZM12 9.33335C12 8.96516 11.7015 8.66669 11.3333 8.66669C10.9651 8.66669 10.6666 8.96516 10.6666 9.33335C10.6666 9.70154 10.9651 10 11.3333 10C11.7015 10 12 9.70154 12 9.33335ZM8.0915 11.1415C7.89248 11.3329 7.88633 11.6494 8.07776 11.8484C8.56232 12.3522 9.24478 12.6667 9.99983 12.6667C10.7549 12.6667 11.4374 12.3522 11.9219 11.8484C12.1133 11.6494 12.1072 11.3329 11.9082 11.1415C11.7092 10.95 11.3926 10.9562 11.2012 11.1552C10.8974 11.4711 10.4719 11.6667 9.99983 11.6667C9.52781 11.6667 9.10231 11.4711 8.79847 11.1552C8.60704 10.9562 8.29051 10.95 8.0915 11.1415ZM9.3333 9.33335C9.3333 8.96516 9.03482 8.66669 8.66663 8.66669C8.29844 8.66669 7.99996 8.96516 7.99996 9.33335C7.99996 9.70154 8.29844 10 8.66663 10C9.03482 10 9.3333 9.70154 9.3333 9.33335Z" fill="white" fill-opacity="0.16"/>
</svg>
