<svg width="20" height="20" viewBox="0 0 20 20" fill="none" xmlns="http://www.w3.org/2000/svg">
<path d="M11.25 13.3333C11.5952 13.3333 11.875 13.6132 11.875 13.9583C11.875 14.3035 11.5952 14.5833 11.25 14.5833H8.75C8.40482 14.5833 8.125 14.3035 8.125 13.9583C8.125 13.6132 8.40482 13.3333 8.75 13.3333H11.25ZM13.75 9.16667C14.0952 9.16667 14.375 9.44649 14.375 9.79167C14.375 10.1368 14.0952 10.4167 13.75 10.4167H6.25C5.90482 10.4167 5.625 10.1368 5.625 9.79167C5.625 9.44649 5.90482 9.16667 6.25 9.16667H13.75ZM16.25 5C16.5952 5 16.875 5.27982 16.875 5.625C16.875 5.97018 16.5952 6.25 16.25 6.25H3.75C3.40482 6.25 3.125 5.97018 3.125 5.625C3.125 5.27982 3.40482 5 3.75 5H16.25Z" fill="#121212"/>
</svg>
