<svg width="16" height="16" viewBox="0 0 16 16" fill="none" xmlns="http://www.w3.org/2000/svg">
<path d="M5.93615 11.0006H10.0638C9.65051 13.1815 8.82291 14.666 7.99998 14.666C7.20198 14.666 6.39959 13.2701 5.97485 11.1969L5.93615 11.0006H10.0638H5.93615ZM2.04385 11.0007L4.91427 11.0005C5.15745 12.3887 5.56964 13.5697 6.10906 14.3962C4.40051 13.8916 2.97807 12.7217 2.14141 11.1866L2.04385 11.0007ZM11.0857 11.0005L13.9561 11.0007C13.1352 12.6271 11.6678 13.8714 9.89157 14.3959C10.3946 13.6242 10.7871 12.5442 11.0348 11.2753L11.0857 11.0005L13.9561 11.0007L11.0857 11.0005ZM11.2876 6.66723L14.5343 6.66682C14.6218 7.0977 14.6677 7.54366 14.6677 8.00035C14.6677 8.69723 14.5608 9.36914 14.3625 10.0006H11.2274C11.2976 9.36221 11.3343 8.69149 11.3343 8.00035C11.3343 7.69747 11.3273 7.39851 11.3134 7.10447L11.2876 6.66723L14.5343 6.66682L11.2876 6.66723ZM1.46565 6.66682L4.71233 6.66723C4.6815 7.10053 4.66561 7.54603 4.66561 8.00035C4.66561 8.55326 4.68915 9.0931 4.73451 9.61379L4.77259 10.0006H1.6375C1.43919 9.36914 1.33228 8.69723 1.33228 8.00035C1.33228 7.54366 1.37819 7.0977 1.46565 6.66682ZM5.71697 6.66685H10.283C10.3165 7.09727 10.3343 7.54317 10.3343 8.00035C10.3343 8.55878 10.3077 9.10037 10.2584 9.6175L10.2173 10.0006H5.78261C5.70725 9.37011 5.66561 8.69839 5.66561 8.00035C5.66561 7.65746 5.67566 7.32093 5.69481 6.9925L5.71697 6.66685H10.283H5.71697ZM9.96282 1.71806L9.8909 1.60458C11.9031 2.19856 13.5191 3.7163 14.2479 5.66679L11.1873 5.66699C10.977 4.05571 10.5497 2.67192 9.96282 1.71806L9.8909 1.60458L9.96282 1.71806ZM6.02782 1.62912L6.10901 1.6046C5.52184 2.50428 5.08543 3.82402 4.85366 5.37376L4.81262 5.66699L1.75203 5.66679C2.471 3.74262 4.0534 2.23959 6.02782 1.62912L6.10901 1.6046L6.02782 1.62912ZM7.99998 1.33466C8.87917 1.33466 9.7637 3.02916 10.1426 5.45695L10.1739 5.66682H5.8261C6.1857 3.12737 7.09566 1.33466 7.99998 1.33466Z" fill="#AFAFAF"/>
<path d="M5.93615 11.0006H10.0638C9.65051 13.1815 8.82291 14.666 7.99998 14.666C7.20198 14.666 6.39959 13.2701 5.97485 11.1969L5.93615 11.0006H10.0638H5.93615ZM2.04385 11.0007L4.91427 11.0005C5.15745 12.3887 5.56964 13.5697 6.10906 14.3962C4.40051 13.8916 2.97807 12.7217 2.14141 11.1866L2.04385 11.0007ZM11.0857 11.0005L13.9561 11.0007C13.1352 12.6271 11.6678 13.8714 9.89157 14.3959C10.3946 13.6242 10.7871 12.5442 11.0348 11.2753L11.0857 11.0005L13.9561 11.0007L11.0857 11.0005ZM11.2876 6.66723L14.5343 6.66682C14.6218 7.0977 14.6677 7.54366 14.6677 8.00035C14.6677 8.69723 14.5608 9.36914 14.3625 10.0006H11.2274C11.2976 9.36221 11.3343 8.69149 11.3343 8.00035C11.3343 7.69747 11.3273 7.39851 11.3134 7.10447L11.2876 6.66723L14.5343 6.66682L11.2876 6.66723ZM1.46565 6.66682L4.71233 6.66723C4.6815 7.10053 4.66561 7.54603 4.66561 8.00035C4.66561 8.55326 4.68915 9.0931 4.73451 9.61379L4.77259 10.0006H1.6375C1.43919 9.36914 1.33228 8.69723 1.33228 8.00035C1.33228 7.54366 1.37819 7.0977 1.46565 6.66682ZM5.71697 6.66685H10.283C10.3165 7.09727 10.3343 7.54317 10.3343 8.00035C10.3343 8.55878 10.3077 9.10037 10.2584 9.6175L10.2173 10.0006H5.78261C5.70725 9.37011 5.66561 8.69839 5.66561 8.00035C5.66561 7.65746 5.67566 7.32093 5.69481 6.9925L5.71697 6.66685H10.283H5.71697ZM9.96282 1.71806L9.8909 1.60458C11.9031 2.19856 13.5191 3.7163 14.2479 5.66679L11.1873 5.66699C10.977 4.05571 10.5497 2.67192 9.96282 1.71806L9.8909 1.60458L9.96282 1.71806ZM6.02782 1.62912L6.10901 1.6046C5.52184 2.50428 5.08543 3.82402 4.85366 5.37376L4.81262 5.66699L1.75203 5.66679C2.471 3.74262 4.0534 2.23959 6.02782 1.62912L6.10901 1.6046L6.02782 1.62912ZM7.99998 1.33466C8.87917 1.33466 9.7637 3.02916 10.1426 5.45695L10.1739 5.66682H5.8261C6.1857 3.12737 7.09566 1.33466 7.99998 1.33466Z" fill="black" fill-opacity="0.7" style="mix-blend-mode:hue"/>
<path d="M5.93615 11.0006H10.0638C9.65051 13.1815 8.82291 14.666 7.99998 14.666C7.20198 14.666 6.39959 13.2701 5.97485 11.1969L5.93615 11.0006H10.0638H5.93615ZM2.04385 11.0007L4.91427 11.0005C5.15745 12.3887 5.56964 13.5697 6.10906 14.3962C4.40051 13.8916 2.97807 12.7217 2.14141 11.1866L2.04385 11.0007ZM11.0857 11.0005L13.9561 11.0007C13.1352 12.6271 11.6678 13.8714 9.89157 14.3959C10.3946 13.6242 10.7871 12.5442 11.0348 11.2753L11.0857 11.0005L13.9561 11.0007L11.0857 11.0005ZM11.2876 6.66723L14.5343 6.66682C14.6218 7.0977 14.6677 7.54366 14.6677 8.00035C14.6677 8.69723 14.5608 9.36914 14.3625 10.0006H11.2274C11.2976 9.36221 11.3343 8.69149 11.3343 8.00035C11.3343 7.69747 11.3273 7.39851 11.3134 7.10447L11.2876 6.66723L14.5343 6.66682L11.2876 6.66723ZM1.46565 6.66682L4.71233 6.66723C4.6815 7.10053 4.66561 7.54603 4.66561 8.00035C4.66561 8.55326 4.68915 9.0931 4.73451 9.61379L4.77259 10.0006H1.6375C1.43919 9.36914 1.33228 8.69723 1.33228 8.00035C1.33228 7.54366 1.37819 7.0977 1.46565 6.66682ZM5.71697 6.66685H10.283C10.3165 7.09727 10.3343 7.54317 10.3343 8.00035C10.3343 8.55878 10.3077 9.10037 10.2584 9.6175L10.2173 10.0006H5.78261C5.70725 9.37011 5.66561 8.69839 5.66561 8.00035C5.66561 7.65746 5.67566 7.32093 5.69481 6.9925L5.71697 6.66685H10.283H5.71697ZM9.96282 1.71806L9.8909 1.60458C11.9031 2.19856 13.5191 3.7163 14.2479 5.66679L11.1873 5.66699C10.977 4.05571 10.5497 2.67192 9.96282 1.71806L9.8909 1.60458L9.96282 1.71806ZM6.02782 1.62912L6.10901 1.6046C5.52184 2.50428 5.08543 3.82402 4.85366 5.37376L4.81262 5.66699L1.75203 5.66679C2.471 3.74262 4.0534 2.23959 6.02782 1.62912L6.10901 1.6046L6.02782 1.62912ZM7.99998 1.33466C8.87917 1.33466 9.7637 3.02916 10.1426 5.45695L10.1739 5.66682H5.8261C6.1857 3.12737 7.09566 1.33466 7.99998 1.33466Z" fill="white" fill-opacity="0.16"/>
</svg>
