<svg width="16" height="16" viewBox="0 0 16 16" fill="none" xmlns="http://www.w3.org/2000/svg">
<path d="M7.32461 1.92627C7.37593 1.65494 7.19758 1.39338 6.92625 1.34205C6.65492 1.29073 6.39336 1.46908 6.34203 1.74041L5.66264 5.33202L2.49977 5.3335C2.22362 5.33362 1.99987 5.55759 2 5.83373C2.00013 6.10987 2.22409 6.33362 2.50023 6.3335L5.47347 6.33211L4.84297 9.66526L1.8331 9.66667C1.55696 9.6668 1.33321 9.89076 1.33333 10.1669C1.33346 10.443 1.55743 10.6668 1.83357 10.6667L4.65379 10.6653L4.00868 14.0757C3.95736 14.3471 4.13571 14.6086 4.40704 14.66C4.67837 14.7113 4.93993 14.5329 4.99126 14.2616L5.67161 10.6649L9.32091 10.6632L8.67539 14.0757C8.62406 14.3471 8.80241 14.6086 9.07374 14.66C9.34508 14.7113 9.60664 14.5329 9.65796 14.2616L10.3387 10.6627L13.5002 10.6612C13.7764 10.6611 14.0001 10.4371 14 10.161C13.9999 9.88484 13.7759 9.66109 13.4998 9.66121L10.5279 9.6626L11.1584 6.32945L14.1669 6.32804C14.443 6.32792 14.6668 6.10395 14.6667 5.82781C14.6665 5.55167 14.4426 5.32791 14.1664 5.32804L11.3476 5.32936L11.9913 1.92627C12.0426 1.65494 11.8643 1.39338 11.593 1.34205C11.3216 1.29073 11.0601 1.46908 11.0087 1.74041L10.3298 5.32984L6.68047 5.33154L7.32461 1.92627ZM6.49129 6.33163L10.1406 6.32993L9.51009 9.66308L5.86079 9.66478L6.49129 6.33163Z" fill="#AFAFAF"/>
<path d="M7.32461 1.92627C7.37593 1.65494 7.19758 1.39338 6.92625 1.34205C6.65492 1.29073 6.39336 1.46908 6.34203 1.74041L5.66264 5.33202L2.49977 5.3335C2.22362 5.33362 1.99987 5.55759 2 5.83373C2.00013 6.10987 2.22409 6.33362 2.50023 6.3335L5.47347 6.33211L4.84297 9.66526L1.8331 9.66667C1.55696 9.6668 1.33321 9.89076 1.33333 10.1669C1.33346 10.443 1.55743 10.6668 1.83357 10.6667L4.65379 10.6653L4.00868 14.0757C3.95736 14.3471 4.13571 14.6086 4.40704 14.66C4.67837 14.7113 4.93993 14.5329 4.99126 14.2616L5.67161 10.6649L9.32091 10.6632L8.67539 14.0757C8.62406 14.3471 8.80241 14.6086 9.07374 14.66C9.34508 14.7113 9.60664 14.5329 9.65796 14.2616L10.3387 10.6627L13.5002 10.6612C13.7764 10.6611 14.0001 10.4371 14 10.161C13.9999 9.88484 13.7759 9.66109 13.4998 9.66121L10.5279 9.6626L11.1584 6.32945L14.1669 6.32804C14.443 6.32792 14.6668 6.10395 14.6667 5.82781C14.6665 5.55167 14.4426 5.32791 14.1664 5.32804L11.3476 5.32936L11.9913 1.92627C12.0426 1.65494 11.8643 1.39338 11.593 1.34205C11.3216 1.29073 11.0601 1.46908 11.0087 1.74041L10.3298 5.32984L6.68047 5.33154L7.32461 1.92627ZM6.49129 6.33163L10.1406 6.32993L9.51009 9.66308L5.86079 9.66478L6.49129 6.33163Z" fill="black" fill-opacity="0.7" style="mix-blend-mode:hue"/>
<path d="M7.32461 1.92627C7.37593 1.65494 7.19758 1.39338 6.92625 1.34205C6.65492 1.29073 6.39336 1.46908 6.34203 1.74041L5.66264 5.33202L2.49977 5.3335C2.22362 5.33362 1.99987 5.55759 2 5.83373C2.00013 6.10987 2.22409 6.33362 2.50023 6.3335L5.47347 6.33211L4.84297 9.66526L1.8331 9.66667C1.55696 9.6668 1.33321 9.89076 1.33333 10.1669C1.33346 10.443 1.55743 10.6668 1.83357 10.6667L4.65379 10.6653L4.00868 14.0757C3.95736 14.3471 4.13571 14.6086 4.40704 14.66C4.67837 14.7113 4.93993 14.5329 4.99126 14.2616L5.67161 10.6649L9.32091 10.6632L8.67539 14.0757C8.62406 14.3471 8.80241 14.6086 9.07374 14.66C9.34508 14.7113 9.60664 14.5329 9.65796 14.2616L10.3387 10.6627L13.5002 10.6612C13.7764 10.6611 14.0001 10.4371 14 10.161C13.9999 9.88484 13.7759 9.66109 13.4998 9.66121L10.5279 9.6626L11.1584 6.32945L14.1669 6.32804C14.443 6.32792 14.6668 6.10395 14.6667 5.82781C14.6665 5.55167 14.4426 5.32791 14.1664 5.32804L11.3476 5.32936L11.9913 1.92627C12.0426 1.65494 11.8643 1.39338 11.593 1.34205C11.3216 1.29073 11.0601 1.46908 11.0087 1.74041L10.3298 5.32984L6.68047 5.33154L7.32461 1.92627ZM6.49129 6.33163L10.1406 6.32993L9.51009 9.66308L5.86079 9.66478L6.49129 6.33163Z" fill="white" fill-opacity="0.16"/>
</svg>
