<svg width="20" height="20" viewBox="0 0 20 20" fill="none" xmlns="http://www.w3.org/2000/svg">
<path d="M6.45832 10C6.45832 10.8054 5.80541 11.4583 4.99999 11.4583C4.19457 11.4583 3.54166 10.8054 3.54166 10C3.54166 9.19459 4.19457 8.54167 4.99999 8.54167C5.80541 8.54167 6.45832 9.19459 6.45832 10ZM11.4583 10C11.4583 10.8054 10.8054 11.4583 9.99999 11.4583C9.19457 11.4583 8.54166 10.8054 8.54166 10C8.54166 9.19459 9.19457 8.54167 9.99999 8.54167C10.8054 8.54167 11.4583 9.19459 11.4583 10ZM15 11.4583C15.8054 11.4583 16.4583 10.8054 16.4583 10C16.4583 9.19459 15.8054 8.54167 15 8.54167C14.1946 8.54167 13.5417 9.19459 13.5417 10C13.5417 10.8054 14.1946 11.4583 15 11.4583Z" fill="#AFAFAF"/>
</svg>
