<svg width="20" height="20" viewBox="0 0 20 20" fill="none" xmlns="http://www.w3.org/2000/svg">
<path d="M10 2.5C9.54 2.5 9.16667 2.87333 9.16667 3.33333V9.16667H3.33333C2.87333 9.16667 2.5 9.54 2.5 10C2.5 10.46 2.87333 10.8333 3.33333 10.8333H9.16667V16.6667C9.16667 17.1267 9.54 17.5 10 17.5C10.46 17.5 10.8333 17.1267 10.8333 16.6667V10.8333H16.6667C17.1267 10.8333 17.5 10.46 17.5 10C17.5 9.54 17.1267 9.16667 16.6667 9.16667H10.8333V3.33333C10.8333 2.87333 10.46 2.5 10 2.5Z" fill="#757575"/>
</svg>
