<svg width="16" height="16" viewBox="0 0 16 16" fill="none" xmlns="http://www.w3.org/2000/svg">
<path fill-rule="evenodd" clip-rule="evenodd" d="M14.4732 14.4733C14.2132 14.7333 13.7866 14.7333 13.5266 14.4733L11.3666 12.3067C11.7132 12.0267 12.0266 11.7133 12.3066 11.3667L14.4732 13.5267C14.7332 13.7867 14.7332 14.2133 14.4732 14.4733Z" fill="#AFAFAF"/>
<path fill-rule="evenodd" clip-rule="evenodd" d="M7.50004 12.3333C10.1694 12.3333 12.3334 10.1694 12.3334 7.5C12.3334 4.83062 10.1694 2.66667 7.50004 2.66667C4.83066 2.66667 2.66671 4.83062 2.66671 7.5C2.66671 10.1694 4.83066 12.3333 7.50004 12.3333ZM7.50004 13.6667C10.9058 13.6667 13.6667 10.9058 13.6667 7.5C13.6667 4.09424 10.9058 1.33333 7.50004 1.33333C4.09428 1.33333 1.33337 4.09424 1.33337 7.5C1.33337 10.9058 4.09428 13.6667 7.50004 13.6667Z" fill="#AFAFAF"/>
</svg>
