<svg width="20" height="20" viewBox="0 0 20 20" fill="none" xmlns="http://www.w3.org/2000/svg">
<path d="M5.62231 3.33333H8.50915C8.85433 3.33333 9.13415 3.61316 9.13415 3.95833C9.13415 4.27475 8.89902 4.53624 8.59396 4.57763L8.50915 4.58333H5.62231C4.62993 4.58333 3.81761 5.3543 3.75164 6.32996L3.74731 6.45833V14.375C3.74731 15.3674 4.51828 16.1797 5.49394 16.2457L5.62231 16.25H13.5396C14.532 16.25 15.3443 15.479 15.4103 14.5034L15.4146 14.375V13.9602C15.4146 13.615 15.6944 13.3352 16.0396 13.3352C16.356 13.3352 16.6175 13.5703 16.6589 13.8754L16.6646 13.9602V14.375C16.6646 16.0452 15.3543 17.4094 13.7056 17.4957L13.5396 17.5H5.62231C3.9521 17.5 2.58792 16.1897 2.50165 14.541L2.49731 14.375V6.45833C2.49731 4.78812 3.80762 3.42394 5.45635 3.33767L5.62231 3.33333H8.50915H5.62231ZM12.084 5.43321V3.125C12.084 2.60503 12.673 2.32496 13.0731 2.6165L13.1416 2.67395L18.1371 7.46562C18.3703 7.68924 18.3915 8.04843 18.2008 8.29673L18.1372 8.36765L13.1417 13.1609C12.7665 13.5209 12.1565 13.2897 12.0899 12.7991L12.084 12.7099V10.4388L11.7977 10.4639C9.79799 10.6725 7.88129 11.5732 6.0356 13.1811C5.60301 13.558 4.93374 13.2017 5.00488 12.6324C5.55888 8.19942 7.8771 5.75608 11.8345 5.44959L12.084 5.43321V3.125V5.43321ZM13.334 4.59054V6.04167C13.334 6.38685 13.0542 6.66667 12.709 6.66667C9.48114 6.66667 7.48062 8.06344 6.61625 10.9643L6.55037 11.1965L6.84386 10.9991C8.7076 9.781 10.6654 9.16667 12.709 9.16667C13.0254 9.16667 13.2869 9.4018 13.3283 9.70686L13.334 9.79167V11.244L16.8017 7.91674L13.334 4.59054Z" fill="#545454"/>
</svg>
