<svg width="20" height="20" viewBox="0 0 20 20" fill="none" xmlns="http://www.w3.org/2000/svg">
<path d="M10.0001 2.5C10.3452 2.5 10.6251 2.77982 10.6251 3.125V7.91667H12.7046C13.9702 7.91667 14.9963 8.94268 14.9963 10.2083V15.368L16.4334 13.9328C16.6777 13.6888 17.0734 13.6891 17.3173 13.9334C17.5612 14.1776 17.5609 14.5733 17.3167 14.8172L14.8129 17.3177C14.5688 17.5615 14.1733 17.5613 13.9293 17.3174L11.4289 14.8169C11.1848 14.5729 11.1848 14.1771 11.4289 13.9331C11.673 13.689 12.0687 13.689 12.3128 13.9331L13.7463 15.3665V10.2083C13.7463 9.63304 13.2799 9.16667 12.7046 9.16667H7.29165C6.71635 9.16667 6.24998 9.63304 6.24998 10.2083V15.3665L7.68346 13.9331C7.92754 13.689 8.32327 13.689 8.56734 13.9331C8.81142 14.1771 8.81142 14.5729 8.56734 14.8169L6.06692 17.3174C5.82285 17.5614 5.42712 17.5614 5.18304 17.3174L2.68257 14.8169C2.43849 14.5729 2.43849 14.1771 2.68257 13.9331C2.92664 13.689 3.32237 13.689 3.56645 13.9331L4.99998 15.3666V10.2083C4.99998 8.94268 6.026 7.91667 7.29165 7.91667H9.37506V3.125C9.37506 2.77982 9.65488 2.5 10.0001 2.5Z" fill="white"/>
</svg>
