<svg width="17" height="16" viewBox="0 0 17 16" fill="none" xmlns="http://www.w3.org/2000/svg">
<path d="M8.50001 2C8.77616 2 9.00001 2.22386 9.00001 2.5V6.33333H10.6636C11.6762 6.33333 12.497 7.15414 12.497 8.16667V12.2944L13.6467 11.1462C13.8421 10.9511 14.1587 10.9513 14.3538 11.1467C14.5489 11.3421 14.5487 11.6587 14.3533 11.8538L12.3503 13.8541C12.155 14.0492 11.8386 14.0491 11.6434 13.8539L9.64308 11.8536C9.44782 11.6583 9.44782 11.3417 9.64308 11.1464C9.83834 10.9512 10.1549 10.9512 10.3502 11.1464L11.497 12.2932V8.16667C11.497 7.70643 11.1239 7.33333 10.6636 7.33333H6.33328C5.87304 7.33333 5.49995 7.70643 5.49995 8.16667V12.2932L6.64673 11.1464C6.84199 10.9512 7.15858 10.9512 7.35384 11.1464C7.5491 11.3417 7.5491 11.6583 7.35384 11.8536L5.3535 13.8539C5.15824 14.0492 4.84166 14.0492 4.6464 13.8539L2.64602 11.8536C2.45076 11.6583 2.45076 11.3417 2.64602 11.1465C2.84128 10.9512 3.15786 10.9512 3.35312 11.1464L4.49995 12.2932V8.16667C4.49995 7.15414 5.32076 6.33333 6.33328 6.33333H8.00001V2.5C8.00001 2.22386 8.22387 2 8.50001 2Z" fill="#A3ACA3"/>
</svg>
